<?xml version="1.0" standalone="no"?>
<!DOCTYPE svg PUBLIC "-//W3C//DTD SVG 20010904//EN" "http://www.w3.org/TR/2001/REC-SVG-20010904/DTD/svg10.dtd">
<svg xmlns="http://www.w3.org/2000/svg" version="1.0" width="1251.000000pt" height="281.000000pt" viewBox="0 0 1251.000000 281.000000" preserveAspectRatio="xMidYMid meet">
<metadata>
Created by potrace 1.16, written by Peter Selinger 2001-2019
<meta name="Producer" content="Online-Convert"/></metadata>
<g transform="translate(0.000000,281.000000) scale(0.100000,-0.100000)" fill="#000000" stroke="none">
<path d="M2510 2600 l0 -210 265 0 265 0 0 210 0 210 -265 0 -265 0 0 -210z"/>
<path d="M5200 1675 l0 -1135 260 0 260 0 0 1135 0 1135 -260 0 -260 0 0 -1135z"/>
<path d="M0 2068 c1 -635 6 -770 35 -861 44 -138 148 -212 326 -232 l56 -6 18 -65 c31 -116 120 -225 231 -286 78 -42 187 -68 317 -75 l117 -6 0 221 0 222 -285 0 -285 0 0 435 0 435 255 0 255 0 0 190 0 190 -255 0 -255 0 0 230 0 230 -265 0 -265 0 0 -622z"/>
<path d="M7803 1988 c3 -597 5 -711 19 -753 50 -165 145 -238 340 -261 l57 -6 6 -40 c12 -70 70 -171 134 -232 103 -97 228 -143 424 -153 l117 -6 0 221 0 222 -285 0 -285 0 0 435 0 435 255 0 255 0 0 190 0 190 -255 0 -255 0 0 230 0 230 -265 0 -266 0 4 -702z"/>
<path d="M6605 2270 c-213 -32 -415 -144 -555 -307 -57 -65 -141 -228 -165 -318 -23 -81 -31 -333 -15 -431 33 -209 138 -396 288 -515 295 -235 780 -264 1109 -68 84 51 197 161 257 253 49 74 96 166 96 187 0 5 -106 9 -236 9 l-237 0 -47 -48 c-84 -85 -212 -128 -358 -119 -181 11 -320 126 -351 290 l-8 47 625 0 625 0 -6 138 c-9 217 -59 382 -162 537 -111 167 -264 273 -467 326 -94 24 -294 34 -393 19z m304 -423 c62 -23 134 -84 161 -137 10 -20 23 -59 28 -88 l9 -52 -358 0 c-198 0 -359 1 -359 3 0 20 37 118 55 146 87 139 288 194 464 128z"/>
<path d="M9705 2270 c-338 -52 -602 -268 -704 -575 -78 -235 -59 -521 49 -740 120 -242 343 -394 650 -440 353 -54 666 53 871 298 52 62 127 189 144 245 l6 22 -240 0 -241 0 -42 -46 c-120 -131 -381 -164 -543 -68 -83 48 -153 150 -169 247 l-7 37 626 0 625 0 0 73 c0 254 -75 491 -208 659 -101 127 -255 224 -427 269 -92 24 -294 33 -390 19z m305 -423 c101 -38 190 -154 190 -249 l0 -28 -356 0 -356 0 7 33 c19 89 82 177 161 223 94 55 240 64 354 21z"/>
<path d="M4200 2260 c-134 -21 -252 -80 -342 -170 l-68 -68 0 104 0 104 -260 0 -260 0 0 -1115 0 -1115 260 0 260 0 0 376 0 376 36 -44 c70 -84 160 -141 284 -179 97 -31 289 -33 390 -5 273 75 454 286 526 612 24 111 24 387 0 499 -70 318 -251 531 -514 604 -85 23 -234 33 -312 21z m67 -430 c151 -67 231 -218 232 -437 1 -119 -11 -185 -49 -268 -39 -85 -89 -139 -168 -177 -60 -30 -75 -33 -152 -33 -222 2 -344 149 -357 435 -6 132 11 231 52 316 29 59 89 125 134 149 93 48 220 54 308 15z"/>
<path d="M11835 2261 c-161 -27 -314 -108 -386 -205 l-29 -40 0 107 0 107 -260 0 -260 0 0 -845 0 -845 259 0 259 0 5 503 c3 313 9 520 16 550 16 70 58 161 89 190 106 101 327 95 397 -12 52 -79 55 -111 55 -693 l0 -538 266 0 265 0 -4 617 c-4 686 -5 698 -72 841 -63 134 -173 222 -315 251 -74 16 -223 22 -285 12z"/>
<path d="M2100 2222 c-123 -32 -225 -113 -287 -228 l-32 -59 -1 148 0 147 -250 0 -250 0 0 -845 0 -845 259 0 260 0 3 483 3 482 33 67 c60 121 147 161 355 160 l127 0 0 254 0 254 -77 -1 c-43 0 -107 -8 -143 -17z"/>
<path d="M2510 1385 l0 -845 265 0 265 0 0 845 0 845 -265 0 -265 0 0 -845z"/>
</g>
</svg>
